<svg clip-rule="evenodd" fill-rule="evenodd" stroke-linejoin="round" stroke-miterlimit="2" viewBox="0 0 200 282" xmlns="http://www.w3.org/2000/svg"><g transform="translate(-98.7725 -94.8831)"><path d="m98.773 94.883h200v281.7h-200z" fill="none"/><g fill="#487a7b"><path d="m1006.86 184.078v150h150v-150l-74.88-49.936z" fill-opacity=".5" transform="translate(-883.086 5.00502)"/><path d="m192.523 320.695c-24.651-3.079-43.75-24.133-43.75-49.612 0-3.449 2.8-6.25 6.25-6.25 3.449 0 6.25 2.801 6.25 6.25 0 20.697 16.803 37.5 37.5 37.5 20.696 0 37.5-16.803 37.5-37.5 0-3.449 2.8-6.25 6.25-6.25 3.449 0 6.25 2.801 6.25 6.25 0 25.479-19.1 46.533-43.75 49.612v43.388h93.75v12.5h-200v-12.5h93.75z"/><path d="m939.337 465.254v41.621c0 11.486 11.202 20.811 25 20.811s25-9.325 25-20.811v-41.621c0-11.486-11.202-20.811-25-20.811s-25 9.325-25 20.811z" transform="matrix(1 0 0 1.20131 -765.565 -337.831)"/><path d="m697.299 382.467.024 15.045 99.976-66.651 99.977 66.651.023-15.045-100-66.667z" transform="translate(-598.527 -220.917)"/></g></g></svg>